<?xml version="1.0" encoding="utf-8"?>
<!-- Generator: Adobe Illustrator 23.0.3, SVG Export Plug-In . SVG Version: 6.00 Build 0)  -->
<svg version="1.1" id="Capa_1" xmlns="http://www.w3.org/2000/svg" xmlns:xlink="http://www.w3.org/1999/xlink" x="0px" y="0px"
	 viewBox="0 0 60 60" style="enable-background:new 0 0 60 60;" xml:space="preserve">
<style type="text/css">
	.st0{fill:#FFFFFF;}
</style>
<path class="st0" d="M30,0C13.5,0,0,13.5,0,30s13.5,30,30,30s30-13.5,30-30S46.5,0,30,0z M30,58C14.6,58,2,45.4,2,30S14.6,2,30,2
	s28,12.6,28,28S45.4,58,30,58z"/>
<path class="st0" d="M23.2,8.5c0.5-0.1,0.9-0.7,0.7-1.2c-0.1-0.5-0.7-0.9-1.2-0.7c-3.9,0.9-7.5,3-10.4,5.8s-4.9,6.4-5.8,10.4
	c-0.1,0.5,0.2,1.1,0.7,1.2c0.1,0,0.2,0,0.2,0c0.5,0,0.9-0.3,1-0.8c0.9-3.6,2.7-6.8,5.3-9.4S19.6,9.3,23.2,8.5z"/>
<path class="st0" d="M52.7,36.1c-0.5-0.1-1.1,0.2-1.2,0.7c-0.9,3.6-2.7,6.8-5.3,9.4s-5.9,4.4-9.4,5.3c-0.5,0.1-0.9,0.7-0.7,1.2
	c0.1,0.5,0.5,0.8,1,0.8c0.1,0,0.2,0,0.2,0c3.9-0.9,7.5-3,10.4-5.8s4.9-6.4,5.8-10.4C53.6,36.8,53.3,36.2,52.7,36.1z"/>
<path class="st0" d="M24.5,13.3c0.5-0.1,0.9-0.7,0.7-1.2c-0.1-0.5-0.7-0.9-1.2-0.7c-3.1,0.7-5.9,2.3-8.1,4.5
	c-2.2,2.2-3.8,5.1-4.5,8.1c-0.1,0.5,0.2,1.1,0.7,1.2c0.1,0,0.2,0,0.2,0c0.5,0,0.9-0.3,1-0.8c0.6-2.7,2-5.2,4-7.2
	S21.7,13.9,24.5,13.3z"/>
<path class="st0" d="M48.7,36c0.1-0.5-0.2-1.1-0.7-1.2c-0.5-0.1-1.1,0.2-1.2,0.7c-0.6,2.7-2,5.2-4,7.2s-4.5,3.4-7.2,4
	c-0.5,0.1-0.9,0.7-0.7,1.2c0.1,0.5,0.5,0.8,1,0.8c0.1,0,0.2,0,0.2,0c3.1-0.7,5.9-2.3,8.1-4.5C46.4,41.9,47.9,39.1,48.7,36z"/>
<path class="st0" d="M26.5,16.9c-0.1-0.5-0.7-0.9-1.2-0.8c-4.6,1-8.1,4.6-9.1,9.1c-0.1,0.5,0.2,1.1,0.8,1.2c0.1,0,0.1,0,0.2,0
	c0.5,0,0.9-0.3,1-0.8c0.8-3.8,3.8-6.8,7.6-7.6C26.3,18,26.6,17.5,26.5,16.9z"/>
<path class="st0" d="M43.8,34.7c0.1-0.5-0.2-1.1-0.8-1.2c-0.5-0.1-1.1,0.2-1.2,0.8c-0.8,3.8-3.8,6.8-7.6,7.6
	c-0.5,0.1-0.9,0.7-0.8,1.2c0.1,0.5,0.5,0.8,1,0.8c0.1,0,0.1,0,0.2,0C39.3,42.8,42.8,39.3,43.8,34.7z"/>
<path class="st0" d="M38.1,30c0-4.5-3.6-8.1-8.1-8.1s-8.1,3.6-8.1,8.1s3.6,8.1,8.1,8.1S38.1,34.5,38.1,30z M30,36.1
	c-3.4,0-6.1-2.7-6.1-6.1s2.7-6.1,6.1-6.1s6.1,2.7,6.1,6.1S33.4,36.1,30,36.1z"/>
</svg>
